<svg xmlns="http://www.w3.org/2000/svg" width="289.484" height="125.993" viewBox="0 0 289.484 125.993"><path fill="#6D6E70" d="M120.635 68.06c-1.7 0-2.237-.628-3.145-2.874-4.492-11.23-10.69-27.492-15.634-41.597h-.54c-1.525 17.34-2.52 34.32-3.322 53.814 0 .45-.36.72-.896.72h-2.695c-.54 0-.72-.18-.72-.99.72-18.416 1.888-36.832 3.595-54.794.18-1.62.81-2.338 2.604-2.338h2.695c1.797 0 2.34.45 3.062 2.34 4.67 12.94 10.96 30.01 15.894 42.412h.358c4.938-12.397 11.23-29.474 15.896-42.412.727-1.887 1.263-2.336 3.062-2.336h2.688c1.797 0 2.438.72 2.604 2.336 1.707 17.97 2.88 36.39 3.59 54.804 0 .812-.182.98-.72.98h-2.693c-.54 0-.898-.27-.898-.72-.81-19.496-1.797-36.476-3.317-53.816h-.538c-4.94 14.106-11.146 30.368-15.633 41.6-.898 2.247-1.527 2.876-3.234 2.876h-2.062v-.006h-.003zm40.83 5.57c-3.944-4.4-5.3-10.42-5.3-22.01v-5.03c0-11.68 1.355-17.7 5.3-22.103 3.147-3.594 8.355-5.3 15.19-5.3s12.04 1.71 15.18 5.3c3.953 4.4 5.3 10.42 5.3 22.102v5.03c0 11.59-1.348 17.61-5.3 22.01-3.147 3.594-8.355 5.3-15.186 5.3s-12.036-1.713-15.176-5.3h-.013.006zm27.223-3.05c3.23-4.132 4.133-9.972 4.133-20.207v-2.605c0-10.96-.895-16.172-4.13-20.305-2.337-3.055-7.01-4.492-12.04-4.492-5.03 0-9.703 1.44-12.04 4.493-3.232 4.133-4.13 9.344-4.13 20.305v2.605c0 10.24.895 16.083 4.13 20.208 2.335 3.063 7.01 4.58 12.04 4.583s9.704-1.53 12.04-4.582h-.002zm15.472 5.477c-.63-.27-.72-.72-.54-1.168l.63-2.067c.187-.54.628-.72 1.167-.45 3.414 1.622 8.09 2.792 13.12 2.786 9.438 0 13.565-4.585 13.565-11.862V62.22c0-7.367-2.433-9.973-10.52-11.86l-5.12-1.257c-8.177-1.977-12.76-6.2-12.76-13.836V33.65c0-9.344 6.2-14.465 16.98-14.465 4.763 0 8.448.63 11.59 1.62.63.18.896.63.72 1.348l-.353 1.797c-.19.72-.54.81-1.355.54-3.23-.99-7.188-1.528-10.872-1.528-8.086 0-12.396 3.684-12.396 10.69v.99c0 7.1 4.67 9.25 10.42 10.69l5.03 1.26c10.062 2.52 12.938 6.11 12.938 14.555v1.706c0 11.23-7.188 16.082-17.79 16.082-6.104-.01-10.782-1.356-14.463-2.88l.008.002zm38.497 0c-.63-.27-.72-.72-.54-1.168l.63-2.067c.18-.54.63-.72 1.168-.45 3.414 1.622 8.09 2.792 13.12 2.786 9.434 0 13.565-4.585 13.565-11.862V62.22c0-7.367-2.433-9.973-10.52-11.86l-5.12-1.257c-8.177-1.977-12.76-6.2-12.76-13.836V33.65c0-9.344 6.2-14.465 16.98-14.465 4.763 0 8.445.63 11.59 1.62.63.18.896.63.72 1.348l-.353 1.797c-.188.72-.54.81-1.354.54-3.23-.99-7.188-1.528-10.87-1.528-8.087 0-12.396 3.684-12.396 10.69v.99c0 7.1 4.67 9.25 10.42 10.69l5.03 1.26c10.06 2.52 12.937 6.11 12.937 14.555v1.706c0 11.23-7.188 16.082-17.79 16.082-6.106-.01-10.782-1.356-14.463-2.88v.002h.007z"/><path fill="#86C449" d="M202.136 105.765c0 1.11.01 2.12.022 3.032.022.91.105 1.8.23 2.67h-1.604l-.52-1.967h-.14c-.308.656-.78 1.203-1.438 1.64-.657.437-1.44.655-2.357.655-1.77 0-3.09-.688-3.942-2.064-.866-1.375-1.303-3.54-1.303-6.49 0-2.795.528-4.913 1.597-6.354 1.06-1.438 2.52-2.162 4.375-2.162.632 0 1.14.037 1.51.113.37.08.78.2 1.21.377V88.46h2.355l-.002 17.308.006-.003zm-2.36-8.165c-.312-.262-.65-.453-1.032-.574-.384-.12-.892-.18-1.52-.18-1.16 0-2.063.523-2.706 1.57-.646 1.045-.975 2.666-.975 4.85 0 .96.062 1.83.188 2.605.12.774.3 1.452.563 2.022.25.57.58 1.01.98 1.312.395.303.896.46 1.48.46 1.573 0 2.58-.93 3.022-2.786V97.6zm5.57-7.568c0-.523.145-.95.437-1.277.292-.324.688-.484 1.164-.484.48 0 .88.153 1.2.48.31.315.478.75.478 1.29 0 .523-.16.94-.478 1.23-.316.294-.715.44-1.194.44-.48 0-.87-.147-1.164-.458-.295-.31-.45-.72-.456-1.217h.01v-.003zm.425 4.982h2.355v16.39h-2.354v-16.39zm16.4 17.143c0 2.118-.47 3.682-1.4 4.686-.94 1.013-2.313 1.516-4.104 1.52-1.096 0-1.99-.104-2.688-.272-.7-.187-1.27-.398-1.704-.645l.688-2.027c.438.195.92.38 1.44.562.52.183 1.17.263 1.93.267 1.332 0 2.244-.373 2.735-1.115.492-.744.738-1.987.738-3.733v-1.215h-.105c-.35.503-.797.896-1.345 1.186-.547.28-1.243.43-2.104.43-1.77 0-3.06-.69-3.895-2.052-.83-1.36-1.243-3.52-1.243-6.438 0-2.816.54-4.947 1.62-6.395 1.082-1.44 2.683-2.164 4.804-2.164 1.024 0 1.91.105 2.65.298.737.197 1.395.432 1.97.688v16.443h.01l.004-.023zm-2.358-14.787c-.656-.35-1.498-.52-2.524-.52-1.113 0-2.01.507-2.688 1.52-.683 1.016-1.02 2.64-1.02 4.87 0 .92.06 1.77.16 2.54s.293 1.45.56 2.03c.268.58.603 1.03 1 1.345.4.32.896.48 1.486.48.83 0 1.483-.22 1.967-.655.48-.438.83-1.092 1.057-1.967v-9.64l.002-.003zm4.882-7.338c0-.523.146-.95.443-1.277.295-.328.682-.484 1.154-.484.48 0 .89.153 1.2.48.316.315.47.75.47 1.29 0 .523-.15.94-.474 1.23-.318.294-.72.44-1.198.44s-.86-.147-1.162-.458c-.295-.31-.438-.72-.438-1.217h.004l.002-.003zm.426 4.982h2.358v16.39h-2.358v-16.39zm5.375 0h2V91.77l2.358-.754v3.998h3.54v2.13h-3.54v9.77c0 .96.12 1.65.34 2.08.23.43.61.64 1.13.64.44 0 .814-.05 1.132-.146.315-.098.662-.224 1.032-.377l.46 1.87c-.48.24-1.013.437-1.59.57-.58.147-1.19.218-1.818.218-1.097 0-1.877-.354-2.347-1.062-.47-.707-.704-1.863-.704-3.46v-10.1h-2v-2.13h.004v-.002zm11.242.986c.634-.397 1.404-.7 2.312-.92.905-.223 1.86-.328 2.865-.328.918 0 1.66.146 2.21.41.55.27.994.648 1.312 1.11.312.472.522 1.013.62 1.608.098.602.146 1.23.146 1.887 0 1.312-.03 2.59-.086 3.835s-.084 2.43-.084 3.54c0 .83.03 1.602.08 2.312.057.71.16 1.38.31 2.02h-1.848l-.572-1.937h-.13c-.327.565-.805 1.062-1.434 1.48s-1.48.613-2.538.613c-1.172 0-2.13-.4-2.88-1.23-.747-.817-1.122-1.946-1.122-3.394 0-.938.16-1.727.475-2.358.315-.63.758-1.146 1.332-1.54s1.258-.672 2.05-.836 1.68-.245 2.646-.245h.647c.223 0 .438.01.683.033.062-.68.097-1.274.097-1.806 0-1.243-.185-2.118-.552-2.618-.368-.505-1.04-.757-2.014-.757-.606 0-1.27.094-1.98.276-.715.188-1.31.422-1.786.704l-.76-1.866V96zm7.047 7.93c-.218-.02-.433-.04-.646-.05-.223-.01-.438-.022-.646-.022-.52 0-1.025.05-1.52.135-.495.088-.94.236-1.325.46-.396.218-.697.513-.926.884-.228.373-.344.846-.344 1.41 0 .87.21 1.55.63 2.026.43.48.978.726 1.646.728.908 0 1.604-.216 2.104-.65.496-.44.85-.92 1.037-1.44v-3.476h-.01v-.004zm7.504 3.572c0 .77.104 1.31.312 1.64.207.33.5.49.862.49.46 0 .994-.122 1.605-.36l.23 1.898c-.278.177-.685.312-1.19.428-.52.107-.98.162-1.396.16-.83 0-1.503-.256-2.016-.77-.514-.52-.77-1.414-.77-2.705V88.46h2.356v19.04h.006v.002h.002z"/><path fill="#B4D44B" d="M78.708 58.404c-.003-.786-.146-1.562-.394-2.312l-5.49-32.426-.007-.003c0-1.24-.454-2.48-1.374-3.41-1.79-1.82-4.646-1.768-6.378.12l-20.3 18.368C35.245 25.79 25.93 13.228 25.3 12.4c-1.73-1.673-4.487-1.626-6.168.11-.812.847-1.22 1.938-1.22 3.03h-.002c-1.918 14.6-5.307 49.085-5.654 53.67 0 4.89 3.978 8.853 8.86 8.853 9.264 0 38.84.062 38.84.06 3.708 0 6.72-3.013 6.72-6.725 0-1.315-.396-2.552-1.062-3.6l.003.005.01-.018c-.037-.164-.542-.945-1.41-2.205l7.646.053.01-.012c1.792 0 3.58-.73 4.922-2.187 1.284-1.397 1.915-3.202 1.917-5l.004-.007-.006-.02-.002-.002z"/><path fill="#F4E151" d="M78.708 58.404c-.003-.786-.146-1.562-.394-2.312l-5.49-32.426-.007-.003c0-1.24-.454-2.48-1.374-3.41-1.79-1.82-4.646-1.768-6.378.12l-20.3 18.368C52.815 49.694 61 60.925 64.21 65.585l7.645.055.01-.015c1.793-.002 3.58-.73 4.923-2.19 1.284-1.396 1.915-3.2 1.917-5l.005-.006-.002-.025z"/><path fill="#96CB4F" d="M25.155 59.247c0-2.02.946-3.795 2.382-4.904l-.002-.01 17.23-15.592C35.245 25.79 25.93 13.228 25.3 12.4c-1.73-1.673-4.487-1.626-6.168.11-.812.847-1.22 1.938-1.22 3.03h-.002c-1.918 14.6-5.307 49.085-5.654 53.67 0 4.89 3.978 8.853 8.86 8.853 9.264 0 38.84.062 38.84.06 3.708 0 6.72-3.013 6.72-6.725 0-1.315-.396-2.552-1.062-3.6l.003.005.01-.018c-.037-.164-.542-.945-1.41-2.205l-33.258-.232c-3.203.002-5.804-2.728-5.804-6.098v-.003z"/><path fill="#93B947" d="M27.535 54.333l.002.01c-1.436 1.11-2.382 2.884-2.382 4.904 0 3.37 2.6 6.1 5.8 6.102l33.26.23c-3.21-4.662-11.397-15.894-19.445-26.84L27.535 54.332z"/></svg>