<?xml version="1.0" encoding="utf-8"?>
<!-- Generator: Adobe Illustrator 16.0.4, SVG Export Plug-In . SVG Version: 6.00 Build 0)  -->
<!DOCTYPE svg PUBLIC "-//W3C//DTD SVG 1.1//EN" "http://www.w3.org/Graphics/SVG/1.1/DTD/svg11.dtd">
<svg version="1.1" id="Layer_1" xmlns="http://www.w3.org/2000/svg" xmlns:xlink="http://www.w3.org/1999/xlink" x="0px" y="0px"
	 width="289.484px" height="125.993px" viewBox="0 0 289.484 125.993" enable-background="new 0 0 289.484 125.993"
	 xml:space="preserve">
<path fill="#6D6E70" d="M120.635,68.06c-1.699,0-2.237-0.628-3.145-2.874c-4.492-11.23-10.69-27.492-15.634-41.597h-0.54
	c-1.525,17.34-2.521,34.32-3.322,53.815c0,0.45-0.36,0.72-0.896,0.72h-2.695c-0.54,0-0.72-0.18-0.72-0.99
	c0.72-18.416,1.888-36.832,3.595-54.794c0.18-1.62,0.81-2.338,2.604-2.338h2.695c1.797,0,2.34,0.45,3.062,2.34
	c4.67,12.94,10.96,30.01,15.895,42.412h0.358c4.938-12.397,11.229-29.474,15.896-42.412c0.727-1.887,1.263-2.336,3.062-2.336h2.688
	c1.797,0,2.438,0.72,2.604,2.336c1.707,17.97,2.88,36.39,3.59,54.804c0,0.812-0.182,0.98-0.72,0.98h-2.693
	c-0.538,0-0.897-0.27-0.897-0.719c-0.81-19.497-1.797-36.477-3.317-53.817h-0.538c-4.94,14.106-11.146,30.368-15.633,41.6
	c-0.898,2.247-1.527,2.876-3.234,2.876h-2.062V68.06H120.635z M161.466,73.629c-3.945-4.399-5.3-10.419-5.3-22.009v-5.03
	c0-11.68,1.354-17.7,5.3-22.103c3.146-3.594,8.354-5.3,15.188-5.3s12.04,1.71,15.18,5.3c3.954,4.4,5.3,10.42,5.3,22.102v5.03
	c0,11.59-1.347,17.61-5.3,22.01c-3.146,3.595-8.354,5.302-15.185,5.302s-12.035-1.714-15.175-5.3h-0.013L161.466,73.629z
	 M188.688,70.581c3.229-4.133,4.133-9.973,4.133-20.208v-2.605c0-10.96-0.896-16.172-4.132-20.305
	c-2.336-3.055-7.008-4.492-12.04-4.492c-5.03,0-9.702,1.438-12.038,4.492c-3.233,4.133-4.132,9.344-4.132,20.305v2.605
	c0,10.24,0.896,16.083,4.13,20.208c2.336,3.062,7.01,4.58,12.04,4.582s9.705-1.531,12.042-4.582H188.688L188.688,70.581z
	 M204.16,76.057c-0.63-0.27-0.72-0.721-0.54-1.168l0.63-2.066c0.187-0.541,0.628-0.721,1.167-0.451
	c3.414,1.623,8.09,2.793,13.12,2.787c9.438,0,13.565-4.584,13.565-11.861V62.22c0-7.367-2.433-9.973-10.52-11.86l-5.12-1.257
	c-8.177-1.977-12.76-6.2-12.76-13.836V33.65c0-9.344,6.2-14.465,16.98-14.465c4.763,0,8.448,0.63,11.59,1.62
	c0.63,0.18,0.896,0.63,0.72,1.348l-0.353,1.797c-0.188,0.72-0.54,0.81-1.354,0.54c-3.229-0.99-7.188-1.528-10.872-1.528
	c-8.086,0-12.396,3.684-12.396,10.69v0.99c0,7.1,4.67,9.25,10.42,10.69l5.03,1.26c10.062,2.52,12.938,6.11,12.938,14.555v1.706
	c0,11.229-7.188,16.082-17.79,16.082c-6.104-0.009-10.782-1.356-14.463-2.88L204.16,76.057z M242.657,76.057
	c-0.63-0.27-0.72-0.721-0.54-1.168l0.63-2.066c0.18-0.541,0.63-0.721,1.168-0.451c3.414,1.623,8.09,2.793,13.12,2.787
	c9.434,0,13.565-4.584,13.565-11.861V62.22c0-7.367-2.433-9.973-10.52-11.86l-5.12-1.257c-8.177-1.977-12.76-6.2-12.76-13.836V33.65
	c0-9.344,6.2-14.465,16.98-14.465c4.763,0,8.445,0.63,11.59,1.62c0.63,0.18,0.896,0.63,0.72,1.348l-0.353,1.797
	c-0.188,0.72-0.54,0.81-1.354,0.54c-3.229-0.99-7.188-1.528-10.87-1.528c-8.087,0-12.396,3.684-12.396,10.69v0.99
	c0,7.1,4.67,9.25,10.42,10.69l5.029,1.26c10.062,2.52,12.938,6.11,12.938,14.555v1.706c0,11.229-7.188,16.082-17.79,16.082
	c-6.106-0.009-10.782-1.356-14.463-2.88v0.002H242.657z"/>
<g>
	<path fill="#86C449" d="M202.136,105.765c0,1.11,0.01,2.12,0.022,3.032c0.022,0.91,0.105,1.8,0.23,2.67h-1.604l-0.52-1.967h-0.14
		c-0.308,0.656-0.781,1.203-1.438,1.64c-0.657,0.437-1.44,0.655-2.357,0.655c-1.77,0-3.088-0.688-3.941-2.064
		c-0.866-1.376-1.303-3.54-1.303-6.49c0-2.796,0.528-4.914,1.597-6.355c1.06-1.438,2.52-2.162,4.375-2.162
		c0.632,0,1.14,0.037,1.51,0.113c0.37,0.08,0.78,0.199,1.21,0.377v-6.754h2.355l-0.002,17.308L202.136,105.765L202.136,105.765z
		 M199.776,97.6c-0.312-0.262-0.65-0.453-1.032-0.574c-0.384-0.119-0.892-0.18-1.52-0.18c-1.16,0-2.063,0.523-2.706,1.57
		c-0.646,1.045-0.975,2.666-0.975,4.85c0,0.96,0.062,1.83,0.188,2.605c0.12,0.773,0.3,1.451,0.562,2.021
		c0.25,0.569,0.58,1.01,0.98,1.312c0.395,0.303,0.896,0.459,1.481,0.459c1.572,0,2.578-0.93,3.021-2.785V97.6L199.776,97.6z
		 M205.345,90.032c0-0.523,0.146-0.949,0.438-1.277c0.292-0.324,0.688-0.484,1.164-0.484c0.479,0,0.88,0.152,1.2,0.479
		c0.31,0.315,0.478,0.75,0.478,1.291c0,0.522-0.16,0.938-0.478,1.23c-0.316,0.293-0.715,0.438-1.194,0.438
		c-0.479,0-0.87-0.146-1.164-0.457c-0.294-0.31-0.45-0.721-0.455-1.217h0.01L205.345,90.032z M205.771,95.014h2.354v16.39h-2.354
		V95.014L205.771,95.014z M222.17,112.157c0,2.118-0.47,3.682-1.401,4.686c-0.94,1.013-2.312,1.516-4.103,1.519
		c-1.096,0-1.99-0.103-2.688-0.271c-0.7-0.188-1.271-0.399-1.704-0.646l0.688-2.027c0.438,0.195,0.92,0.381,1.44,0.562
		c0.52,0.183,1.17,0.263,1.93,0.267c1.332,0,2.244-0.373,2.735-1.115c0.492-0.744,0.738-1.987,0.738-3.733v-1.214H219.7
		c-0.35,0.503-0.797,0.896-1.345,1.186c-0.547,0.28-1.243,0.428-2.104,0.428c-1.77,0-3.062-0.688-3.896-2.051
		c-0.83-1.359-1.243-3.519-1.243-6.438c0-2.816,0.54-4.947,1.62-6.395c1.082-1.439,2.683-2.164,4.804-2.164
		c1.024,0,1.91,0.104,2.65,0.297c0.737,0.197,1.395,0.432,1.97,0.688v16.443h0.01L222.17,112.157L222.17,112.157z M219.812,97.37
		c-0.656-0.35-1.498-0.52-2.524-0.52c-1.113,0-2.01,0.507-2.688,1.52c-0.683,1.016-1.021,2.641-1.021,4.871
		c0,0.92,0.062,1.77,0.16,2.539s0.294,1.45,0.56,2.03c0.269,0.58,0.604,1.03,1,1.345c0.4,0.32,0.897,0.48,1.487,0.48
		c0.83,0,1.483-0.221,1.967-0.655c0.48-0.438,0.83-1.092,1.057-1.967v-9.64L219.812,97.37L219.812,97.37z M224.694,90.032
		c0-0.523,0.146-0.949,0.443-1.277c0.295-0.328,0.682-0.484,1.154-0.484c0.48,0,0.889,0.152,1.2,0.479
		c0.315,0.315,0.47,0.75,0.47,1.291c0,0.522-0.15,0.938-0.475,1.23c-0.318,0.293-0.72,0.438-1.198,0.438
		c-0.478,0-0.859-0.146-1.162-0.457c-0.295-0.311-0.438-0.721-0.438-1.217h0.004L224.694,90.032z M225.12,95.014h2.358v16.39h-2.358
		V95.014z M230.495,95.014h2V91.77l2.358-0.754v3.998h3.54v2.13h-3.54v9.771c0,0.959,0.12,1.649,0.34,2.08
		c0.229,0.43,0.61,0.639,1.13,0.639c0.44,0,0.814-0.049,1.132-0.146c0.315-0.098,0.662-0.224,1.032-0.377l0.46,1.87
		c-0.48,0.24-1.013,0.436-1.59,0.57c-0.58,0.146-1.19,0.217-1.818,0.217c-1.096,0-1.876-0.354-2.346-1.062
		c-0.47-0.707-0.704-1.863-0.704-3.459V97.146h-2v-2.13h0.005L230.495,95.014z M241.737,96c0.634-0.397,1.404-0.701,2.312-0.92
		c0.906-0.223,1.862-0.328,2.866-0.328c0.918,0,1.66,0.146,2.21,0.41c0.55,0.271,0.994,0.648,1.312,1.11
		c0.312,0.472,0.522,1.013,0.62,1.608c0.098,0.602,0.146,1.23,0.146,1.887c0,1.312-0.03,2.59-0.086,3.835s-0.084,2.429-0.084,3.54
		c0,0.83,0.03,1.602,0.08,2.312c0.057,0.711,0.16,1.381,0.31,2.021h-1.848l-0.572-1.938h-0.13c-0.327,0.565-0.805,1.062-1.434,1.479
		s-1.48,0.614-2.537,0.614c-1.172,0-2.13-0.401-2.88-1.229c-0.747-0.818-1.122-1.947-1.122-3.395c0-0.938,0.16-1.727,0.475-2.358
		c0.315-0.631,0.758-1.146,1.332-1.54s1.258-0.672,2.05-0.836s1.681-0.245,2.646-0.245h0.647c0.223,0,0.438,0.011,0.683,0.033
		c0.062-0.679,0.097-1.274,0.097-1.806c0-1.243-0.185-2.118-0.552-2.618c-0.368-0.505-1.04-0.757-2.014-0.757
		c-0.606,0-1.271,0.095-1.98,0.277c-0.715,0.188-1.31,0.422-1.786,0.704l-0.76-1.866L241.737,96z M248.784,103.93
		c-0.218-0.02-0.433-0.04-0.646-0.051c-0.223-0.01-0.438-0.021-0.646-0.021c-0.52,0-1.025,0.051-1.52,0.135
		c-0.495,0.088-0.94,0.236-1.325,0.461c-0.396,0.217-0.697,0.512-0.926,0.883c-0.229,0.373-0.345,0.846-0.345,1.41
		c0,0.871,0.21,1.551,0.63,2.026c0.43,0.479,0.978,0.726,1.646,0.728c0.908,0,1.604-0.217,2.104-0.652
		c0.496-0.438,0.85-0.918,1.037-1.438v-3.477h-0.01V103.93z M256.288,107.502c0,0.77,0.104,1.31,0.312,1.64
		c0.207,0.33,0.5,0.489,0.862,0.489c0.46,0,0.994-0.121,1.605-0.359l0.229,1.898c-0.277,0.177-0.684,0.312-1.189,0.428
		c-0.521,0.107-0.98,0.162-1.396,0.16c-0.832,0-1.504-0.256-2.017-0.77c-0.514-0.521-0.771-1.414-0.771-2.705V88.459h2.357V107.5
		h0.006v0.002H256.288z"/>
</g>
<path fill="#B4D44B" d="M78.708,58.404c-0.003-0.786-0.146-1.562-0.394-2.312l-5.49-32.426l-0.007-0.003
	c0-1.24-0.454-2.48-1.374-3.41c-1.79-1.82-4.646-1.768-6.378,0.12l-20.3,18.368C35.246,25.788,25.93,13.227,25.3,12.4
	c-1.729-1.673-4.487-1.626-6.168,0.11c-0.812,0.847-1.22,1.938-1.22,3.03H17.91c-1.918,14.6-5.307,49.085-5.654,53.669
	c0,4.891,3.978,8.854,8.86,8.854c9.264,0,38.84,0.062,38.84,0.061c3.708,0,6.72-3.014,6.72-6.726c0-1.315-0.396-2.552-1.062-3.601
	l0.003,0.006l0.01-0.018c-0.037-0.164-0.542-0.945-1.41-2.205l7.646,0.053l0.01-0.012c1.792-0.002,3.58-0.73,4.922-2.188
	c1.284-1.397,1.915-3.202,1.917-5l0.004-0.007l-0.006-0.02L78.708,58.404L78.708,58.404z"/>
<path fill="#F4E151" d="M78.708,58.404c-0.003-0.786-0.146-1.562-0.394-2.312l-5.49-32.426l-0.007-0.003
	c0-1.24-0.454-2.48-1.374-3.41c-1.79-1.82-4.646-1.768-6.378,0.12l-20.3,18.368C52.815,49.693,61,60.924,64.209,65.584l7.646,0.055
	l0.01-0.014c1.793-0.002,3.58-0.729,4.923-2.189c1.284-1.397,1.915-3.202,1.917-5l0.005-0.007l-0.002-0.024V58.404z"/>
<path fill="#96CB4F" d="M25.155,59.247c0-2.02,0.946-3.795,2.382-4.904l-0.002-0.01l17.23-15.592
	C35.246,25.788,25.93,13.227,25.3,12.4c-1.729-1.673-4.487-1.626-6.168,0.11c-0.812,0.847-1.22,1.938-1.22,3.03H17.91
	c-1.918,14.6-5.307,49.085-5.654,53.669c0,4.891,3.978,8.854,8.86,8.854c9.264,0,38.84,0.062,38.84,0.061
	c3.708,0,6.72-3.014,6.72-6.726c0-1.315-0.396-2.552-1.062-3.601l0.003,0.006l0.01-0.018c-0.037-0.164-0.542-0.945-1.41-2.205
	l-33.258-0.232c-3.202,0.002-5.803-2.728-5.803-6.098L25.155,59.247L25.155,59.247z"/>
<path fill="#93B947" d="M27.535,54.333l0.002,0.01c-1.436,1.11-2.382,2.884-2.382,4.904c0,3.37,2.6,6.1,5.8,6.102l33.26,0.231
	c-3.21-4.662-11.397-15.894-19.445-26.841L27.535,54.333z"/>
</svg>
